P1
#commentaire
13 12
0 0 0 0 0 0 1 0 0 0 0 0 0
0 0 0 0 0 1 0 1 0 0 1 0 0
0 0 0 0 1 0 0 0 1 0 1 0 0
0 0 0 1 0 0 0 0 0 1 1 0 0
0 0 1 0 0 0 0 0 0 0 1 0 0
0 1 0 0 0 0 0 0 0 0 0 1 0
1 1 1 1 1 1 1 1 1 1 1 1 1
1 0 0 0 0 0 0 0 0 0 0 0 1
1 0 1 1 0 0 1 1 0 1 1 0 1
1 0 0 0 0 0 1 1 0 0 0 0 1 
1 0 0 0 0 0 1 1 0 0 0 0 1
1 1 1 1 1 1 1 1 1 1 1 1 1
